<svg xmlns="http://www.w3.org/2000/svg" xmlns:xlink="http://www.w3.org/1999/xlink" width="291" zoomAndPan="magnify" viewBox="0 0 218.25 79.499998" height="106" preserveAspectRatio="xMidYMid meet" version="1.0"><defs><g/><clipPath id="e9f9adb9d8"><path d="M 0.308594 14 L 75 14 L 75 65.570312 L 0.308594 65.570312 Z M 0.308594 14 " clip-rule="nonzero"/></clipPath></defs><g fill="#1b1b1b" fill-opacity="1"><g transform="translate(92.846324, 56.378697)"><g><path d="M 4.367188 0 L 8.09375 0 L 8.09375 -23.464844 L 24.664062 0 L 28.175781 0 L 28.175781 -29.972656 L 24.492188 -29.972656 L 24.492188 -6.507812 L 7.921875 -29.972656 L 4.367188 -29.972656 Z M 4.367188 0 "/></g></g></g><g fill="#1b1b1b" fill-opacity="1"><g transform="translate(124.096423, 56.378697)"><g><path d="M 4.367188 0 L 23.035156 0 L 23.035156 -3.511719 L 8.136719 -3.511719 L 8.136719 -13.53125 L 21.496094 -13.53125 L 21.496094 -17 L 8.136719 -17 L 8.136719 -26.460938 L 22.566406 -26.460938 L 22.566406 -29.972656 L 4.367188 -29.972656 Z M 4.367188 0 "/></g></g></g><g fill="#1b1b1b" fill-opacity="1"><g transform="translate(148.625539, 56.378697)"><g><path d="M 14.34375 0.554688 C 20.894531 0.554688 25.132812 -2.65625 25.132812 -7.878906 C 25.132812 -12.289062 22.179688 -14.945312 14.515625 -16.828125 C 8.691406 -18.242188 6.765625 -19.78125 6.765625 -22.265625 C 6.765625 -25.132812 9.335938 -26.933594 13.617188 -26.933594 C 18.027344 -26.933594 20.765625 -24.707031 20.851562 -21.109375 L 24.578125 -21.109375 C 24.535156 -26.933594 20.339844 -30.53125 13.617188 -30.53125 C 7.066406 -30.53125 2.910156 -27.316406 2.910156 -22.265625 C 2.910156 -17.640625 6.207031 -15.070312 13.574219 -13.316406 C 18.96875 -12.03125 21.238281 -10.535156 21.238281 -7.75 C 21.238281 -4.796875 18.582031 -3.039062 14.34375 -3.039062 C 9.675781 -3.039062 6.421875 -5.351562 6.335938 -9.207031 L 2.570312 -9.207031 C 2.613281 -3.339844 7.195312 0.554688 14.34375 0.554688 Z M 14.34375 0.554688 "/></g></g></g><g fill="#1b1b1b" fill-opacity="1"><g transform="translate(175.038248, 56.378697)"><g><path d="M 11.605469 0 L 15.371094 0 L 15.371094 -26.375 L 25.476562 -26.375 L 25.476562 -29.972656 L 1.457031 -29.972656 L 1.457031 -26.375 L 11.605469 -26.375 Z M 11.605469 0 "/></g></g></g><g clip-path="url(#e9f9adb9d8)"><path fill="#bfd130" d="M 43.46875 33.289062 C 42.226562 34.425781 40.945312 35.882812 39.519531 37.5 C 34.191406 43.558594 27.042969 51.679688 13.265625 54.125 C 11.246094 57.679688 7.613281 61.054688 5.066406 63.164062 C 12.738281 61.199219 19.15625 58.425781 24.472656 55.167969 C 31.542969 50.832031 36.65625 45.644531 40.160156 40.371094 C 41.503906 38.351562 42.546875 35.882812 43.46875 33.289062 M 52.171875 44.296875 C 49.703125 48.027344 45.4375 51.671875 38.917969 53.960938 C 39.945312 54.097656 40.929688 54.183594 41.871094 54.21875 C 48.425781 54.480469 53.042969 52.484375 56.246094 49.34375 C 59.472656 46.1875 61.296875 41.855469 62.238281 37.496094 C 62.726562 35.246094 62.976562 32.992188 63.058594 30.890625 C 63.386719 22.714844 67.300781 20.332031 70.027344 19.667969 C 69.605469 19.574219 69.089844 19.503906 68.46875 19.476562 C 67.136719 19.417969 65.679688 18.691406 64.03125 17.871094 C 63.445312 17.578125 62.828125 17.273438 62.292969 17.027344 C 54.921875 13.65625 51.464844 16.808594 49.078125 22.03125 C 48.0625 24.25 47.21875 26.855469 46.359375 29.511719 C 48.207031 28.886719 50.175781 29.148438 52.53125 30.707031 C 53.738281 31.503906 54.527344 32.921875 54.792969 34.695312 C 54.996094 36.035156 54.902344 37.589844 54.472656 39.242188 C 54.046875 40.871094 53.292969 42.59375 52.171875 44.296875 Z M 52.976562 38.855469 C 53.351562 37.414062 53.433594 36.070312 53.261719 34.925781 C 53.058594 33.585938 52.507812 32.546875 51.675781 31.996094 C 49.421875 30.507812 47.527344 30.578125 45.667969 31.628906 C 44.523438 35.089844 43.261719 38.5 41.449219 41.226562 C 37.832031 46.667969 32.558594 52.023438 25.28125 56.488281 C 19.046875 60.308594 9.710938 63.863281 0.308594 65.875 C 1.1875 63.933594 9.105469 58.597656 12.085938 53.0625 L 12.265625 52.726562 L 12.640625 52.664062 C 26.113281 50.394531 33.136719 42.414062 38.359375 36.476562 C 40.5625 33.96875 42.46875 31.800781 44.414062 30.5 C 44.570312 30.019531 44.726562 29.539062 44.878906 29.058594 C 45.753906 26.359375 46.613281 23.703125 47.671875 21.390625 C 50.429688 15.363281 54.417969 11.726562 62.933594 15.621094 C 63.621094 15.9375 64.183594 16.21875 64.722656 16.484375 C 66.222656 17.230469 67.542969 17.886719 68.535156 17.933594 C 72.234375 18.101562 73.222656 19.820312 73.226562 19.828125 L 74.03125 21.171875 L 72.476562 20.992188 C 72.453125 20.992188 65.042969 20.019531 64.605469 30.953125 C 64.515625 33.144531 64.257812 35.484375 63.753906 37.816406 C 62.757812 42.4375 60.800781 47.050781 57.332031 50.449219 C 54.503906 53.21875 50.683594 55.175781 45.589844 55.667969 C 46.132812 57.144531 46.53125 58.761719 47.101562 59.378906 C 47.867188 60.207031 48.839844 61.019531 49.433594 61.523438 C 50.605469 61.769531 52.609375 62.332031 52.851562 63.855469 C 52.851562 63.855469 50.273438 62.652344 49.652344 62.65625 C 49.03125 62.65625 48.988281 62.714844 48.554688 62.804688 L 48.550781 62.804688 C 47.417969 63.035156 46.046875 63.449219 46.046875 63.449219 C 46.046875 63.449219 46.800781 62.605469 47.621094 62.011719 C 46.546875 61.089844 46.578125 61.09375 45.964844 60.425781 C 45.160156 59.554688 43.898438 57.15625 43.402344 55.789062 C 42.699219 55.808594 42.554688 55.796875 41.808594 55.765625 C 39.882812 55.6875 37.8125 55.429688 35.582031 54.960938 C 34.289062 55.285156 32.925781 55.558594 31.484375 55.777344 C 37.359375 53.714844 49.710938 50.066406 52.976562 38.855469 Z M 52.976562 38.855469 " fill-opacity="1" fill-rule="nonzero"/></g><path fill="#bfd130" d="M 21.476562 46.042969 L 21.476562 16.539062 L 23.078125 16.539062 L 23.078125 46.042969 Z M 77.929688 16.539062 L 77.929688 63.816406 L 21.476562 63.816406 L 21.476562 60.375 L 23.078125 60.375 L 23.078125 62.214844 L 76.328125 62.214844 L 76.328125 16.539062 Z M 77.929688 16.539062 " fill-opacity="1" fill-rule="nonzero"/><path fill="#bfd130" d="M 10.519531 22.621094 L 49.703125 0.00390625 L 88.886719 22.621094 L 88.09375 24.003906 L 49.703125 1.839844 L 11.3125 24.003906 Z M 10.519531 22.621094 " fill-opacity="1" fill-rule="nonzero"/></svg>