<svg xmlns="http://www.w3.org/2000/svg" xmlns:xlink="http://www.w3.org/1999/xlink" width="500" zoomAndPan="magnify" viewBox="0 0 375 374.999991" height="500" preserveAspectRatio="xMidYMid meet" version="1.0"><path fill="#2d4016" d="M 360.953125 203.976562 L 12.304688 203.976562 C 11.445312 203.976562 10.597656 203.894531 9.753906 203.726562 C 8.914062 203.558594 8.09375 203.3125 7.300781 202.984375 C 6.507812 202.65625 5.753906 202.253906 5.042969 201.773438 C 4.328125 201.296875 3.667969 200.757812 3.058594 200.148438 C 2.453125 199.542969 1.910156 198.882812 1.433594 198.167969 C 0.957031 197.453125 0.554688 196.699219 0.226562 195.90625 C -0.101562 195.113281 -0.351562 194.296875 -0.519531 193.453125 C -0.683594 192.613281 -0.769531 191.761719 -0.769531 190.902344 C -0.769531 190.046875 -0.683594 189.195312 -0.519531 188.355469 C -0.351562 187.511719 -0.101562 186.695312 0.226562 185.902344 C 0.554688 185.109375 0.957031 184.355469 1.433594 183.640625 C 1.910156 182.925781 2.453125 182.265625 3.058594 181.660156 C 3.667969 181.050781 4.328125 180.511719 5.042969 180.035156 C 5.753906 179.554688 6.507812 179.152344 7.300781 178.824219 C 8.09375 178.496094 8.914062 178.25 9.753906 178.082031 C 10.597656 177.914062 11.445312 177.828125 12.304688 177.828125 L 360.953125 177.828125 C 361.808594 177.828125 362.660156 177.914062 363.503906 178.082031 C 364.34375 178.25 365.160156 178.496094 365.953125 178.824219 C 366.746094 179.152344 367.5 179.554688 368.214844 180.035156 C 368.929688 180.511719 369.589844 181.050781 370.195312 181.660156 C 370.804688 182.265625 371.34375 182.925781 371.820312 183.640625 C 372.300781 184.355469 372.703125 185.109375 373.03125 185.902344 C 373.359375 186.695312 373.605469 187.511719 373.773438 188.355469 C 373.941406 189.195312 374.027344 190.046875 374.027344 190.902344 C 374.027344 191.761719 373.941406 192.613281 373.773438 193.453125 C 373.605469 194.296875 373.359375 195.113281 373.03125 195.90625 C 372.703125 196.699219 372.300781 197.453125 371.820312 198.167969 C 371.34375 198.882812 370.804688 199.542969 370.195312 200.148438 C 369.589844 200.757812 368.929688 201.296875 368.214844 201.773438 C 367.5 202.253906 366.746094 202.65625 365.953125 202.984375 C 365.160156 203.3125 364.34375 203.558594 363.503906 203.726562 C 362.660156 203.894531 361.808594 203.976562 360.953125 203.976562 Z M 360.953125 203.976562 " fill-opacity="1" fill-rule="nonzero"/><path fill="#2d4016" d="M 151.765625 343.4375 C 150.03125 343.441406 148.363281 343.109375 146.757812 342.445312 C 145.15625 341.78125 143.746094 340.832031 142.523438 339.601562 L 3.066406 200.144531 C 2.460938 199.535156 1.917969 198.878906 1.441406 198.164062 C 0.960938 197.449219 0.558594 196.699219 0.230469 195.90625 C -0.0976562 195.113281 -0.347656 194.296875 -0.511719 193.453125 C -0.679688 192.613281 -0.765625 191.761719 -0.765625 190.90625 C -0.765625 190.046875 -0.679688 189.195312 -0.511719 188.355469 C -0.347656 187.511719 -0.0976562 186.695312 0.230469 185.902344 C 0.558594 185.109375 0.960938 184.359375 1.441406 183.644531 C 1.917969 182.929688 2.460938 182.273438 3.066406 181.664062 L 142.523438 42.207031 C 143.125 41.566406 143.78125 40.988281 144.496094 40.476562 C 145.207031 39.96875 145.96875 39.535156 146.769531 39.175781 C 147.570312 38.820312 148.398438 38.546875 149.257812 38.355469 C 150.113281 38.164062 150.980469 38.0625 151.859375 38.046875 C 152.738281 38.03125 153.609375 38.105469 154.46875 38.265625 C 155.332031 38.425781 156.171875 38.667969 156.988281 38.996094 C 157.800781 39.324219 158.574219 39.734375 159.304688 40.21875 C 160.039062 40.703125 160.714844 41.253906 161.335938 41.875 C 161.957031 42.496094 162.507812 43.171875 162.992188 43.902344 C 163.476562 44.636719 163.882812 45.410156 164.210938 46.222656 C 164.542969 47.039062 164.785156 47.875 164.945312 48.738281 C 165.105469 49.601562 165.175781 50.472656 165.160156 51.351562 C 165.148438 52.226562 165.042969 53.09375 164.851562 53.953125 C 164.664062 54.808594 164.390625 55.640625 164.03125 56.441406 C 163.675781 57.242188 163.242188 58 162.730469 58.714844 C 162.222656 59.429688 161.644531 60.085938 161.003906 60.683594 L 30.800781 190.902344 L 161.003906 321.125 C 161.914062 322.039062 162.675781 323.066406 163.285156 324.203125 C 163.894531 325.34375 164.324219 326.546875 164.574219 327.816406 C 164.828125 329.082031 164.890625 330.359375 164.761719 331.644531 C 164.636719 332.929688 164.328125 334.171875 163.832031 335.363281 C 163.335938 336.558594 162.679688 337.65625 161.863281 338.652344 C 161.042969 339.652344 160.09375 340.511719 159.019531 341.230469 C 157.949219 341.949219 156.792969 342.496094 155.554688 342.871094 C 154.320312 343.246094 153.054688 343.4375 151.765625 343.4375 Z M 151.765625 343.4375 " fill-opacity="1" fill-rule="nonzero"/></svg>