<svg xmlns="http://www.w3.org/2000/svg" xmlns:xlink="http://www.w3.org/1999/xlink" width="500" zoomAndPan="magnify" viewBox="0 0 375 374.999991" height="500" preserveAspectRatio="xMidYMid meet" version="1.0"><defs><clipPath id="ce12cd09b6"><path d="M 0 0 L 328.5 0 L 328.5 93 L 0 93 Z M 0 0 " clip-rule="nonzero"/></clipPath></defs><g clip-path="url(#ce12cd09b6)"><path fill="#2d4016" d="M 316.890625 45.773438 L 234.734375 45.773438 L 234.734375 11.445312 C 234.734375 4.988281 229.453125 -0.292969 222.996094 -0.292969 L 105.632812 -0.292969 C 99.175781 -0.292969 93.894531 4.988281 93.894531 11.445312 L 93.894531 45.773438 L 11.738281 45.773438 C 5.28125 45.773438 0 51.054688 0 57.511719 L 0 80.984375 C 0 87.441406 5.28125 92.722656 11.738281 92.722656 L 316.890625 92.722656 C 323.347656 92.722656 328.628906 87.441406 328.628906 80.984375 L 328.628906 57.511719 C 328.628906 51.054688 323.347656 45.773438 316.890625 45.773438 Z M 316.890625 45.773438 " fill-opacity="1" fill-rule="nonzero"/></g><path fill="#2d4016" d="M 51.640625 365.011719 C 52.230469 370.878906 57.21875 375.28125 63.378906 375.28125 L 265.542969 375.28125 C 271.410156 375.28125 276.398438 370.878906 277.28125 365.011719 L 305.449219 117.367188 L 23.472656 117.367188 Z M 211.261719 326.867188 L 231.800781 162.847656 C 232.679688 156.394531 238.550781 151.992188 245.003906 152.578125 C 251.460938 153.457031 255.859375 159.328125 255.273438 165.78125 L 234.734375 329.800781 C 233.855469 335.671875 228.867188 340.070312 222.996094 340.070312 C 222.410156 340.070312 222.117188 340.070312 221.53125 340.070312 C 215.074219 339.191406 210.675781 333.324219 211.261719 326.867188 Z M 152.578125 164.316406 C 152.578125 157.859375 157.859375 152.578125 164.3125 152.578125 C 170.769531 152.578125 176.050781 157.859375 176.050781 164.316406 L 176.050781 328.335938 C 176.050781 334.789062 170.769531 340.070312 164.3125 340.070312 C 157.859375 340.070312 152.578125 334.789062 152.578125 328.335938 Z M 83.625 152.578125 C 90.078125 151.699219 95.949219 156.394531 96.828125 162.847656 L 117.367188 326.867188 C 118.246094 333.324219 113.554688 339.191406 107.097656 340.070312 C 106.511719 340.070312 106.21875 340.070312 105.632812 340.070312 C 99.761719 340.070312 94.773438 335.671875 93.894531 329.800781 L 73.355469 165.78125 C 72.769531 159.328125 77.167969 153.457031 83.625 152.578125 Z M 83.625 152.578125 " fill-opacity="1" fill-rule="nonzero"/></svg>