<svg xmlns="http://www.w3.org/2000/svg" xmlns:xlink="http://www.w3.org/1999/xlink" width="500" zoomAndPan="magnify" viewBox="0 0 375 374.999991" height="500" preserveAspectRatio="xMidYMid meet" version="1.0"><path fill="#2d4016" d="M 362.5 175 L 337.5 175 C 337.5 173.773438 337.441406 172.546875 337.320312 171.324219 C 337.199219 170.101562 337.019531 168.886719 336.78125 167.683594 C 336.539062 166.480469 336.242188 165.289062 335.886719 164.113281 C 335.527344 162.9375 335.117188 161.785156 334.644531 160.648438 C 334.175781 159.515625 333.652344 158.40625 333.070312 157.324219 C 332.492188 156.238281 331.863281 155.1875 331.179688 154.167969 C 330.496094 153.144531 329.765625 152.160156 328.988281 151.210938 C 328.207031 150.261719 327.386719 149.351562 326.515625 148.484375 C 325.648438 147.613281 324.738281 146.792969 323.789062 146.011719 C 322.839844 145.234375 321.855469 144.503906 320.832031 143.820312 C 319.8125 143.136719 318.761719 142.507812 317.675781 141.929688 C 316.59375 141.347656 315.484375 140.824219 314.351562 140.355469 C 313.214844 139.882812 312.0625 139.472656 310.886719 139.113281 C 309.710938 138.757812 308.519531 138.460938 307.316406 138.21875 C 306.109375 137.980469 304.898438 137.800781 303.675781 137.679688 C 302.453125 137.558594 301.226562 137.5 300 137.5 L 287.5 137.5 C 286.273438 137.5 285.046875 137.558594 283.824219 137.679688 C 282.601562 137.800781 281.390625 137.980469 280.183594 138.21875 C 278.980469 138.460938 277.789062 138.757812 276.613281 139.113281 C 275.4375 139.472656 274.285156 139.882812 273.148438 140.355469 C 272.015625 140.824219 270.90625 141.347656 269.824219 141.929688 C 268.738281 142.507812 267.6875 143.136719 266.667969 143.820312 C 265.644531 144.503906 264.660156 145.234375 263.710938 146.011719 C 262.761719 146.792969 261.851562 147.613281 260.984375 148.484375 C 260.113281 149.351562 259.292969 150.261719 258.511719 151.210938 C 257.734375 152.160156 257.003906 153.144531 256.320312 154.167969 C 255.636719 155.1875 255.007812 156.238281 254.429688 157.324219 C 253.847656 158.40625 253.324219 159.515625 252.855469 160.648438 C 252.382812 161.785156 251.972656 162.9375 251.613281 164.113281 C 251.257812 165.289062 250.960938 166.480469 250.71875 167.683594 C 250.480469 168.886719 250.300781 170.101562 250.179688 171.324219 C 250.058594 172.546875 250 173.773438 250 175 L 250 200 C 250 201.226562 250.058594 202.453125 250.179688 203.675781 C 250.300781 204.898438 250.480469 206.109375 250.71875 207.316406 C 250.960938 208.519531 251.257812 209.710938 251.613281 210.886719 C 251.972656 212.0625 252.382812 213.214844 252.855469 214.351562 C 253.324219 215.484375 253.847656 216.59375 254.429688 217.675781 C 255.007812 218.761719 255.636719 219.8125 256.320312 220.832031 C 257.003906 221.855469 257.734375 222.839844 258.511719 223.789062 C 259.292969 224.738281 260.113281 225.648438 260.984375 226.515625 C 261.851562 227.386719 262.761719 228.207031 263.710938 228.988281 C 264.660156 229.765625 265.644531 230.496094 266.667969 231.179688 C 267.6875 231.863281 268.738281 232.492188 269.824219 233.070312 C 270.90625 233.652344 272.015625 234.175781 273.148438 234.644531 C 274.285156 235.117188 275.4375 235.527344 276.613281 235.886719 C 277.789062 236.242188 278.980469 236.539062 280.183594 236.78125 C 281.386719 237.019531 282.601562 237.199219 283.824219 237.320312 C 285.046875 237.441406 286.273438 237.5 287.5 237.5 L 300 237.5 C 301.226562 237.5 302.453125 237.441406 303.675781 237.320312 C 304.898438 237.199219 306.109375 237.019531 307.316406 236.78125 C 308.519531 236.539062 309.710938 236.242188 310.886719 235.886719 C 312.0625 235.527344 313.214844 235.117188 314.351562 234.644531 C 315.484375 234.175781 316.59375 233.652344 317.675781 233.070312 C 318.761719 232.492188 319.8125 231.863281 320.832031 231.179688 C 321.855469 230.496094 322.839844 229.765625 323.789062 228.988281 C 324.738281 228.207031 325.648438 227.386719 326.515625 226.515625 C 327.386719 225.648438 328.207031 224.738281 328.988281 223.789062 C 329.765625 222.839844 330.496094 221.855469 331.179688 220.832031 C 331.863281 219.8125 332.492188 218.761719 333.070312 217.675781 C 333.652344 216.59375 334.175781 215.484375 334.644531 214.351562 C 335.117188 213.214844 335.527344 212.0625 335.886719 210.886719 C 336.242188 209.710938 336.539062 208.519531 336.78125 207.316406 C 337.019531 206.109375 337.199219 204.898438 337.320312 203.675781 C 337.441406 202.453125 337.5 201.226562 337.5 200 L 362.5 200 C 363.320312 200 364.132812 199.917969 364.9375 199.757812 C 365.742188 199.601562 366.523438 199.363281 367.285156 199.046875 C 368.042969 198.734375 368.761719 198.347656 369.445312 197.894531 C 370.128906 197.4375 370.757812 196.917969 371.339844 196.339844 C 371.917969 195.757812 372.4375 195.128906 372.894531 194.445312 C 373.347656 193.761719 373.734375 193.042969 374.046875 192.285156 C 374.363281 191.523438 374.601562 190.742188 374.757812 189.9375 C 374.917969 189.132812 375 188.320312 375 187.5 C 375 186.679688 374.917969 185.867188 374.757812 185.0625 C 374.601562 184.257812 374.363281 183.476562 374.046875 182.714844 C 373.734375 181.957031 373.347656 181.238281 372.894531 180.554688 C 372.4375 179.871094 371.917969 179.242188 371.339844 178.660156 C 370.757812 178.082031 370.128906 177.5625 369.445312 177.105469 C 368.761719 176.652344 368.042969 176.265625 367.285156 175.953125 C 366.523438 175.636719 365.742188 175.398438 364.9375 175.238281 C 364.132812 175.078125 363.320312 175 362.5 175 Z M 362.5 175 " fill-opacity="1" fill-rule="nonzero"/><path fill="#2d4016" d="M 12.5 200 L 225 200 L 225 175 L 12.5 175 C 11.679688 175 10.867188 175.078125 10.0625 175.238281 C 9.257812 175.398438 8.476562 175.636719 7.714844 175.953125 C 6.957031 176.265625 6.238281 176.652344 5.554688 177.105469 C 4.871094 177.5625 4.242188 178.082031 3.660156 178.660156 C 3.082031 179.242188 2.5625 179.871094 2.105469 180.554688 C 1.652344 181.238281 1.265625 181.957031 0.953125 182.714844 C 0.636719 183.476562 0.398438 184.257812 0.238281 185.0625 C 0.078125 185.867188 0 186.679688 0 187.5 C 0 188.320312 0.078125 189.132812 0.238281 189.9375 C 0.398438 190.742188 0.636719 191.523438 0.953125 192.285156 C 1.265625 193.042969 1.652344 193.761719 2.105469 194.445312 C 2.5625 195.128906 3.082031 195.757812 3.660156 196.339844 C 4.242188 196.917969 4.871094 197.4375 5.554688 197.894531 C 6.238281 198.347656 6.957031 198.734375 7.714844 199.046875 C 8.476562 199.363281 9.257812 199.601562 10.0625 199.757812 C 10.867188 199.917969 11.679688 200 12.5 200 Z M 12.5 200 " fill-opacity="1" fill-rule="nonzero"/><path fill="#2d4016" d="M 375 50 C 375 49.179688 374.917969 48.367188 374.757812 47.5625 C 374.601562 46.757812 374.363281 45.976562 374.046875 45.214844 C 373.734375 44.457031 373.347656 43.738281 372.894531 43.054688 C 372.4375 42.371094 371.917969 41.742188 371.339844 41.160156 C 370.757812 40.582031 370.128906 40.0625 369.445312 39.605469 C 368.761719 39.152344 368.042969 38.765625 367.285156 38.453125 C 366.523438 38.136719 365.742188 37.898438 364.9375 37.738281 C 364.132812 37.578125 363.320312 37.5 362.5 37.5 L 250 37.5 L 250 62.5 L 362.5 62.5 C 363.320312 62.5 364.132812 62.417969 364.9375 62.261719 C 365.742188 62.101562 366.523438 61.863281 367.285156 61.546875 C 368.042969 61.234375 368.761719 60.847656 369.445312 60.394531 C 370.128906 59.9375 370.757812 59.417969 371.339844 58.839844 C 371.917969 58.257812 372.4375 57.628906 372.894531 56.945312 C 373.347656 56.261719 373.734375 55.542969 374.046875 54.785156 C 374.363281 54.023438 374.601562 53.242188 374.757812 52.4375 C 374.917969 51.632812 375 50.820312 375 50 Z M 375 50 " fill-opacity="1" fill-rule="nonzero"/><path fill="#2d4016" d="M 12.5 62.5 L 137.5 62.5 C 137.5 63.726562 137.558594 64.953125 137.679688 66.175781 C 137.800781 67.398438 137.980469 68.609375 138.21875 69.816406 C 138.460938 71.019531 138.757812 72.210938 139.113281 73.386719 C 139.472656 74.5625 139.882812 75.714844 140.355469 76.851562 C 140.824219 77.984375 141.347656 79.09375 141.929688 80.175781 C 142.507812 81.261719 143.136719 82.3125 143.820312 83.332031 C 144.503906 84.355469 145.234375 85.339844 146.011719 86.289062 C 146.792969 87.238281 147.613281 88.148438 148.484375 89.015625 C 149.351562 89.886719 150.261719 90.707031 151.210938 91.488281 C 152.160156 92.265625 153.144531 92.996094 154.167969 93.679688 C 155.1875 94.363281 156.238281 94.992188 157.324219 95.570312 C 158.40625 96.152344 159.515625 96.675781 160.648438 97.144531 C 161.785156 97.617188 162.9375 98.027344 164.113281 98.386719 C 165.289062 98.742188 166.480469 99.039062 167.683594 99.28125 C 168.886719 99.519531 170.101562 99.699219 171.324219 99.820312 C 172.546875 99.941406 173.773438 100 175 100 L 187.5 100 C 188.726562 100 189.953125 99.941406 191.175781 99.820312 C 192.398438 99.699219 193.609375 99.519531 194.816406 99.28125 C 196.019531 99.039062 197.210938 98.742188 198.386719 98.386719 C 199.5625 98.027344 200.714844 97.617188 201.851562 97.144531 C 202.984375 96.675781 204.09375 96.152344 205.175781 95.570312 C 206.261719 94.992188 207.3125 94.363281 208.332031 93.679688 C 209.355469 92.996094 210.339844 92.265625 211.289062 91.488281 C 212.238281 90.707031 213.148438 89.886719 214.015625 89.015625 C 214.886719 88.148438 215.707031 87.238281 216.488281 86.289062 C 217.265625 85.339844 217.996094 84.355469 218.679688 83.332031 C 219.363281 82.3125 219.992188 81.261719 220.570312 80.175781 C 221.152344 79.09375 221.675781 77.984375 222.144531 76.851562 C 222.617188 75.714844 223.027344 74.5625 223.386719 73.386719 C 223.742188 72.210938 224.039062 71.019531 224.28125 69.816406 C 224.519531 68.609375 224.699219 67.398438 224.820312 66.175781 C 224.941406 64.953125 225 63.726562 225 62.5 L 225 37.5 C 225 36.273438 224.941406 35.046875 224.820312 33.824219 C 224.699219 32.601562 224.519531 31.390625 224.28125 30.183594 C 224.039062 28.980469 223.742188 27.789062 223.386719 26.613281 C 223.027344 25.4375 222.617188 24.285156 222.144531 23.148438 C 221.675781 22.015625 221.152344 20.90625 220.570312 19.824219 C 219.992188 18.738281 219.363281 17.6875 218.679688 16.667969 C 217.996094 15.644531 217.265625 14.660156 216.488281 13.710938 C 215.707031 12.761719 214.886719 11.851562 214.015625 10.984375 C 213.148438 10.113281 212.238281 9.292969 211.289062 8.511719 C 210.339844 7.734375 209.355469 7.003906 208.332031 6.320312 C 207.3125 5.636719 206.261719 5.007812 205.175781 4.429688 C 204.09375 3.847656 202.984375 3.324219 201.851562 2.855469 C 200.714844 2.382812 199.5625 1.972656 198.386719 1.613281 C 197.210938 1.257812 196.019531 0.960938 194.816406 0.71875 C 193.609375 0.480469 192.398438 0.300781 191.175781 0.179688 C 189.953125 0.0585938 188.726562 0 187.5 0 L 175 0 C 173.773438 0 172.546875 0.0585938 171.324219 0.179688 C 170.101562 0.300781 168.886719 0.480469 167.683594 0.71875 C 166.480469 0.960938 165.289062 1.257812 164.113281 1.613281 C 162.9375 1.972656 161.785156 2.382812 160.648438 2.855469 C 159.515625 3.324219 158.40625 3.847656 157.324219 4.429688 C 156.238281 5.007812 155.1875 5.636719 154.167969 6.320312 C 153.144531 7.003906 152.160156 7.734375 151.210938 8.511719 C 150.261719 9.292969 149.351562 10.113281 148.484375 10.984375 C 147.613281 11.851562 146.792969 12.761719 146.011719 13.710938 C 145.234375 14.660156 144.503906 15.644531 143.820312 16.667969 C 143.136719 17.6875 142.507812 18.738281 141.929688 19.824219 C 141.347656 20.90625 140.824219 22.015625 140.355469 23.148438 C 139.882812 24.285156 139.472656 25.4375 139.113281 26.613281 C 138.757812 27.789062 138.460938 28.980469 138.21875 30.183594 C 137.980469 31.390625 137.800781 32.601562 137.679688 33.824219 C 137.558594 35.046875 137.5 36.273438 137.5 37.5 L 12.5 37.5 C 11.679688 37.5 10.867188 37.578125 10.0625 37.738281 C 9.257812 37.898438 8.476562 38.136719 7.714844 38.453125 C 6.957031 38.765625 6.238281 39.152344 5.554688 39.605469 C 4.871094 40.0625 4.242188 40.582031 3.660156 41.160156 C 3.082031 41.742188 2.5625 42.371094 2.105469 43.054688 C 1.652344 43.738281 1.265625 44.457031 0.953125 45.214844 C 0.636719 45.976562 0.398438 46.757812 0.238281 47.5625 C 0.078125 48.367188 0 49.179688 0 50 C 0 50.820312 0.078125 51.632812 0.238281 52.4375 C 0.398438 53.242188 0.636719 54.023438 0.953125 54.785156 C 1.265625 55.542969 1.652344 56.261719 2.105469 56.945312 C 2.5625 57.628906 3.082031 58.257812 3.660156 58.839844 C 4.242188 59.417969 4.871094 59.9375 5.554688 60.394531 C 6.238281 60.847656 6.957031 61.234375 7.714844 61.546875 C 8.476562 61.863281 9.257812 62.101562 10.0625 62.261719 C 10.867188 62.417969 11.679688 62.5 12.5 62.5 Z M 12.5 62.5 " fill-opacity="1" fill-rule="nonzero"/><path fill="#2d4016" d="M 362.5 312.5 L 175 312.5 L 175 337.5 L 362.5 337.5 C 363.320312 337.5 364.132812 337.417969 364.9375 337.257812 C 365.742188 337.097656 366.523438 336.863281 367.285156 336.546875 C 368.042969 336.234375 368.761719 335.847656 369.445312 335.394531 C 370.128906 334.9375 370.757812 334.417969 371.339844 333.839844 C 371.917969 333.257812 372.4375 332.628906 372.894531 331.945312 C 373.347656 331.261719 373.734375 330.542969 374.046875 329.785156 C 374.363281 329.023438 374.601562 328.242188 374.757812 327.4375 C 374.917969 326.632812 375 325.820312 375 325 C 375 324.179688 374.917969 323.367188 374.757812 322.5625 C 374.601562 321.757812 374.363281 320.976562 374.046875 320.214844 C 373.734375 319.457031 373.347656 318.738281 372.894531 318.054688 C 372.4375 317.371094 371.917969 316.742188 371.339844 316.160156 C 370.757812 315.582031 370.128906 315.0625 369.445312 314.605469 C 368.761719 314.152344 368.042969 313.765625 367.285156 313.453125 C 366.523438 313.136719 365.742188 312.898438 364.9375 312.738281 C 364.132812 312.578125 363.320312 312.5 362.5 312.5 Z M 362.5 312.5 " fill-opacity="1" fill-rule="nonzero"/><path fill="#2d4016" d="M 112.5 275 L 100 275 C 98.773438 275 97.546875 275.058594 96.324219 275.179688 C 95.101562 275.300781 93.890625 275.480469 92.683594 275.71875 C 91.480469 275.960938 90.289062 276.257812 89.113281 276.613281 C 87.9375 276.972656 86.785156 277.382812 85.648438 277.855469 C 84.515625 278.324219 83.40625 278.847656 82.324219 279.429688 C 81.238281 280.007812 80.1875 280.636719 79.167969 281.320312 C 78.144531 282.003906 77.160156 282.734375 76.210938 283.511719 C 75.261719 284.292969 74.351562 285.113281 73.484375 285.984375 C 72.613281 286.851562 71.792969 287.761719 71.011719 288.710938 C 70.234375 289.660156 69.503906 290.644531 68.820312 291.667969 C 68.136719 292.6875 67.507812 293.738281 66.929688 294.824219 C 66.347656 295.90625 65.824219 297.015625 65.355469 298.148438 C 64.882812 299.285156 64.472656 300.4375 64.113281 301.613281 C 63.757812 302.789062 63.460938 303.980469 63.21875 305.183594 C 62.980469 306.386719 62.800781 307.601562 62.679688 308.824219 C 62.558594 310.046875 62.5 311.273438 62.5 312.5 L 12.5 312.5 C 11.679688 312.5 10.867188 312.578125 10.0625 312.738281 C 9.257812 312.898438 8.476562 313.136719 7.714844 313.453125 C 6.957031 313.765625 6.238281 314.152344 5.554688 314.605469 C 4.871094 315.0625 4.242188 315.582031 3.660156 316.160156 C 3.082031 316.742188 2.5625 317.371094 2.105469 318.054688 C 1.652344 318.738281 1.265625 319.457031 0.953125 320.214844 C 0.636719 320.976562 0.398438 321.757812 0.238281 322.5625 C 0.078125 323.367188 0 324.179688 0 325 C 0 325.820312 0.078125 326.632812 0.238281 327.4375 C 0.398438 328.242188 0.636719 329.023438 0.953125 329.785156 C 1.265625 330.542969 1.652344 331.261719 2.105469 331.945312 C 2.5625 332.628906 3.082031 333.257812 3.660156 333.839844 C 4.242188 334.417969 4.871094 334.9375 5.554688 335.394531 C 6.238281 335.847656 6.957031 336.234375 7.714844 336.546875 C 8.476562 336.863281 9.257812 337.097656 10.0625 337.257812 C 10.867188 337.417969 11.679688 337.5 12.5 337.5 L 62.5 337.5 C 62.5 338.726562 62.558594 339.953125 62.679688 341.175781 C 62.800781 342.398438 62.980469 343.609375 63.21875 344.816406 C 63.460938 346.019531 63.757812 347.210938 64.113281 348.386719 C 64.472656 349.5625 64.882812 350.714844 65.355469 351.851562 C 65.824219 352.984375 66.347656 354.09375 66.929688 355.175781 C 67.507812 356.261719 68.136719 357.3125 68.820312 358.332031 C 69.503906 359.355469 70.234375 360.339844 71.011719 361.289062 C 71.792969 362.238281 72.613281 363.148438 73.484375 364.015625 C 74.351562 364.886719 75.261719 365.707031 76.210938 366.488281 C 77.160156 367.265625 78.144531 367.996094 79.167969 368.679688 C 80.1875 369.363281 81.238281 369.992188 82.324219 370.570312 C 83.40625 371.152344 84.515625 371.675781 85.648438 372.144531 C 86.785156 372.617188 87.9375 373.027344 89.113281 373.386719 C 90.289062 373.742188 91.480469 374.039062 92.683594 374.28125 C 93.890625 374.519531 95.101562 374.699219 96.324219 374.820312 C 97.546875 374.941406 98.773438 375 100 375 L 112.5 375 C 113.726562 375 114.953125 374.941406 116.175781 374.820312 C 117.398438 374.699219 118.609375 374.519531 119.816406 374.28125 C 121.019531 374.039062 122.210938 373.742188 123.386719 373.386719 C 124.5625 373.027344 125.714844 372.617188 126.851562 372.144531 C 127.984375 371.675781 129.09375 371.152344 130.175781 370.570312 C 131.261719 369.992188 132.3125 369.363281 133.332031 368.679688 C 134.355469 367.996094 135.339844 367.265625 136.289062 366.488281 C 137.238281 365.707031 138.148438 364.886719 139.015625 364.015625 C 139.886719 363.148438 140.707031 362.238281 141.488281 361.289062 C 142.265625 360.339844 142.996094 359.355469 143.679688 358.332031 C 144.363281 357.3125 144.992188 356.261719 145.570312 355.175781 C 146.152344 354.09375 146.675781 352.984375 147.144531 351.851562 C 147.617188 350.714844 148.027344 349.5625 148.386719 348.386719 C 148.742188 347.210938 149.039062 346.019531 149.28125 344.816406 C 149.519531 343.609375 149.699219 342.398438 149.820312 341.175781 C 149.941406 339.953125 150 338.726562 150 337.5 L 150 312.5 C 150 311.273438 149.941406 310.046875 149.820312 308.824219 C 149.699219 307.601562 149.519531 306.386719 149.28125 305.183594 C 149.039062 303.980469 148.742188 302.789062 148.386719 301.613281 C 148.027344 300.4375 147.617188 299.285156 147.144531 298.148438 C 146.675781 297.015625 146.152344 295.90625 145.570312 294.824219 C 144.992188 293.738281 144.363281 292.6875 143.679688 291.667969 C 142.996094 290.644531 142.265625 289.660156 141.488281 288.710938 C 140.707031 287.761719 139.886719 286.851562 139.015625 285.984375 C 138.148438 285.113281 137.238281 284.292969 136.289062 283.511719 C 135.339844 282.734375 134.355469 282.003906 133.332031 281.320312 C 132.3125 280.636719 131.261719 280.007812 130.175781 279.429688 C 129.09375 278.847656 127.984375 278.324219 126.851562 277.855469 C 125.714844 277.382812 124.5625 276.972656 123.386719 276.613281 C 122.210938 276.257812 121.019531 275.960938 119.816406 275.71875 C 118.609375 275.480469 117.398438 275.300781 116.175781 275.179688 C 114.953125 275.058594 113.726562 275 112.5 275 Z M 112.5 275 " fill-opacity="1" fill-rule="nonzero"/></svg>