<svg xmlns="http://www.w3.org/2000/svg" xmlns:xlink="http://www.w3.org/1999/xlink" width="500" zoomAndPan="magnify" viewBox="0 0 375 374.999991" height="500" preserveAspectRatio="xMidYMid meet" version="1.0"><defs><clipPath id="f6909b9f33"><path d="M 0.113281 0 L 269.886719 0 L 269.886719 375 L 0.113281 375 Z M 0.113281 0 " clip-rule="nonzero"/></clipPath></defs><g clip-path="url(#f6909b9f33)"><path fill="#2d4016" d="M 269.820312 190.867188 C 269.820312 244.179688 270.125 297.496094 269.464844 350.804688 C 269.375 358.226562 266.621094 368.121094 261.421875 372.402344 C 253.15625 379.203125 245.226562 371.125 238.359375 365.632812 C 207.953125 341.328125 177.292969 317.332031 147.375 292.433594 C 139.113281 285.5625 134.101562 284.792969 125.34375 291.953125 C 93.773438 317.757812 61.601562 342.855469 29.015625 367.363281 C 23.609375 371.429688 13.800781 374.230469 8.230469 372.03125 C 3.789062 370.28125 0.496094 360.019531 0.46875 353.523438 C 0.0078125 245.042969 0.09375 136.554688 0.1875 28.070312 C 0.203125 8.148438 8.125 0.132812 27.949219 0.0976562 C 99.320312 -0.0351562 170.691406 -0.0273438 242.058594 0.0898438 C 261.796875 0.121094 269.648438 8.101562 269.695312 28.140625 C 269.824219 82.382812 269.742188 136.621094 269.742188 190.867188 C 269.765625 190.867188 269.792969 190.867188 269.820312 190.867188 " fill-opacity="1" fill-rule="nonzero"/></g></svg>